<svg width="26" height="27" viewBox="0 0 26 27" fill="none" xmlns="http://www.w3.org/2000/svg">
<path d="M4.62695 0.5H16.0449L25.5 9.84473V22.3184C25.5 24.3179 23.7368 26 21.4824 26H4.52539C2.26198 25.9998 0.500027 24.3171 0.5 22.3184V4.18164C0.499963 2.1963 2.34833 0.5 4.62695 0.5Z" fill="white" stroke="#D4D4D8"/>
<path d="M5.76968 20.0469V14.3906H7.98843C9.2775 14.3906 10.0119 15.1797 10.0119 16.2969C10.0119 17.4297 9.26187 18.2031 7.95718 18.2031H6.94156V20.0469H5.76968ZM6.94156 17.2578H7.76968C8.465 17.2578 8.80093 16.8672 8.80093 16.2969C8.80093 15.7344 8.465 15.3516 7.76968 15.3516H6.94156V17.2578ZM12.9062 20.0469H10.9141V14.3906H12.9297C14.6328 14.3906 15.6719 15.4531 15.6719 17.2109C15.6719 18.9844 14.6328 20.0469 12.9062 20.0469ZM12.0859 19.0391H12.8594C13.9375 19.0391 14.5 18.4766 14.5 17.2109C14.5 15.9531 13.9375 15.3984 12.8672 15.3984H12.0859V19.0391ZM16.6834 20.0469V14.3906H20.41V15.3594H17.8553V16.7344H20.1678V17.7031H17.8553V20.0469H16.6834Z" fill="#343A3E"/>
<path d="M16.2708 6.55274V0L26 9.63638H19.5139C16.5951 9.63638 16.1357 7.58062 16.2708 6.55274Z" fill="#D4D4D8"/>
</svg>
