<svg width="18" height="18" viewBox="0 0 18 18" fill="none" xmlns="http://www.w3.org/2000/svg">
<path d="M12.7793 3.65657C12.1631 3.04061 11.1747 3.04068 10.5585 3.65657L4.61819 9.59688C3.38656 10.8287 3.31319 12.434 4.40326 13.5241C5.53448 14.6553 7.21468 14.5719 8.40404 13.3827L13.6882 8.0986C13.9811 7.80571 14.4559 7.80571 14.7488 8.0986C15.0417 8.3915 15.0417 8.86638 14.7488 9.15926L9.4647 14.4434C7.77763 16.1303 5.14397 16.3862 3.3426 14.5848C1.55648 12.7986 1.85683 10.2371 3.55753 8.53622L9.49784 2.59591C10.6998 1.39423 12.638 1.39416 13.8399 2.59591C15.0418 3.7978 15.0422 5.7365 13.8404 6.9385L7.79602 12.9829C7.05002 13.7289 5.84014 13.7284 5.09414 12.9824C4.34836 12.2364 4.34821 11.027 5.09414 10.281L10.4824 4.89279C10.7752 4.59995 11.2501 4.60005 11.543 4.89279C11.8359 5.18569 11.8359 5.66056 11.543 5.95346L6.1548 11.3417C5.99465 11.5018 5.99481 11.7615 6.1548 11.9217C6.31502 12.082 6.57515 12.0825 6.73536 11.9223L12.7798 5.87784C13.3957 5.26163 13.3954 4.27268 12.7793 3.65657Z" fill="#333333"/>
</svg>
