<svg width="26" height="26" viewBox="0 0 26 26" fill="none" xmlns="http://www.w3.org/2000/svg">
<path d="M3.79163 20.8942L3.08309 20.6482C3.00113 20.8844 3.0422 21.1458 3.19262 21.3455C3.34305 21.5451 3.58304 21.6567 3.83264 21.643L3.79163 20.8942ZM4.96731 17.5069L5.67585 17.7528C5.74627 17.5499 5.72634 17.3266 5.6211 17.1394L4.96731 17.5069ZM7.89947 20.6692L8.31543 20.0451C8.18059 19.9552 8.02026 19.9115 7.85846 19.9203L7.89947 20.6692ZM22.2083 13.0013H22.9583C22.9583 7.50147 18.4998 3.04297 13 3.04297V3.79297V4.54297C17.6714 4.54297 21.4583 8.32989 21.4583 13.0013H22.2083ZM13 22.2096V22.9596C18.4998 22.9596 22.9583 18.5011 22.9583 13.0013H22.2083H21.4583C21.4583 17.6727 17.6714 21.4596 13 21.4596V22.2096ZM3.79163 13.0013H4.54163C4.54163 8.32989 8.32855 4.54297 13 4.54297V3.79297V3.04297C7.50012 3.04297 3.04163 7.50147 3.04163 13.0013H3.79163ZM3.79163 20.8942L4.50016 21.1401L5.67585 17.7528L4.96731 17.5069L4.25878 17.261L3.08309 20.6482L3.79163 20.8942ZM3.79163 13.0013H3.04163C3.04163 14.77 3.5034 16.4332 4.31353 17.8744L4.96731 17.5069L5.6211 17.1394C4.93386 15.9168 4.54163 14.506 4.54163 13.0013H3.79163ZM7.89947 20.6692L7.48352 21.2933C9.06305 22.346 10.961 22.9596 13 22.9596V22.2096V21.4596C11.2661 21.4596 9.65624 20.9388 8.31543 20.0451L7.89947 20.6692ZM7.89947 20.6692L7.85846 19.9203L3.75061 20.1453L3.79163 20.8942L3.83264 21.643L7.94048 21.4181L7.89947 20.6692Z" fill="#555555"/>
<path d="M10.6979 11.0114C10.6979 9.63106 11.7322 9.12399 13.2809 9.17093C14.3986 9.20195 15.2873 9.93229 15.2965 10.8274C15.3506 11.6643 15.013 12.3804 14.1472 12.8519C13.5723 13.312 13 13.1966 12.9974 13.7721" stroke="#555555" stroke-width="1.5" stroke-linecap="round" stroke-linejoin="round"/>
<circle cx="1.15104" cy="1.15104" r="1.15104" transform="matrix(1 0 0 -1 11.849 17.9082)" fill="#555555"/>
</svg>
