<svg width="26" height="26" viewBox="0 0 26 26" fill="none" xmlns="http://www.w3.org/2000/svg">
<path d="M19.7599 20.4922C19.7599 21.6409 16.5006 22.5722 12.48 22.5722C8.45932 22.5722 5.19995 21.6409 5.19995 20.4922" stroke="#555555" stroke-width="1.5" stroke-linecap="round"/>
<path d="M15.73 10.834H14.98C14.98 12.2147 13.8607 13.334 12.48 13.334V14.084V14.834C14.6891 14.834 16.48 13.0431 16.48 10.834H15.73ZM12.48 14.084V13.334C11.0993 13.334 9.97998 12.2147 9.97998 10.834H9.22998H8.47998C8.47998 13.0431 10.2708 14.834 12.48 14.834V14.084ZM9.22998 10.834H9.97998C9.97998 9.45327 11.0993 8.33398 12.48 8.33398V7.58398V6.83398C10.2708 6.83398 8.47998 8.62485 8.47998 10.834H9.22998ZM12.48 7.58398V8.33398C13.8607 8.33398 14.98 9.45327 14.98 10.834H15.73H16.48C16.48 8.62485 14.6891 6.83398 12.48 6.83398V7.58398Z" fill="#555555"/>
<path d="M9.22998 17.4307L8.69769 17.9591L8.72167 17.9832L8.74774 18.0051L9.22998 17.4307ZM10.2607 18.296L9.77844 18.8704L9.77844 18.8704L10.2607 18.296ZM15.73 17.4307L16.2122 18.0051L16.2383 17.9832L16.2623 17.9591L15.73 17.4307ZM14.6993 18.296L15.1815 18.8704V18.8704L14.6993 18.296ZM11.8856 19.4169L11.6784 20.1377L11.6784 20.1377L11.8856 19.4169ZM13.0744 19.4169L13.2815 20.1377L13.2815 20.1377L13.0744 19.4169ZM5.97998 10.953H6.72998C6.72998 7.7043 9.38519 5.08398 12.48 5.08398V4.33398V3.58398C8.54214 3.58398 5.22998 6.89057 5.22998 10.953H5.97998ZM9.22998 17.4307L9.76227 16.9024C7.65195 14.7763 6.72998 13.2812 6.72998 10.953H5.97998H5.22998C5.22998 13.863 6.47467 15.7195 8.69769 17.9591L9.22998 17.4307ZM9.22998 17.4307L8.74774 18.0051L9.77844 18.8704L10.2607 18.296L10.7429 17.7216L9.71222 16.8563L9.22998 17.4307ZM18.98 10.953H19.73C19.73 6.89057 16.4178 3.58398 12.48 3.58398V4.33398V5.08398C15.5748 5.08398 18.23 7.7043 18.23 10.953H18.98ZM15.73 17.4307L16.2623 17.9591C18.4853 15.7195 19.73 13.863 19.73 10.953H18.98H18.23C18.23 13.2812 17.308 14.7763 15.1977 16.9024L15.73 17.4307ZM15.73 17.4307L15.2477 16.8563L14.217 17.7216L14.6993 18.296L15.1815 18.8704L16.2122 18.0051L15.73 17.4307ZM10.2607 18.296L9.77844 18.8704C10.1646 19.1947 10.4855 19.4647 10.7661 19.6665C11.0543 19.8737 11.3428 20.0413 11.6784 20.1377L11.8856 19.4169L12.0928 18.6961C11.9877 18.6659 11.8585 18.6044 11.6418 18.4486C11.4175 18.2873 11.1462 18.0602 10.7429 17.7216L10.2607 18.296ZM14.6993 18.296L14.217 17.7216C13.8137 18.0602 13.5425 18.2873 13.3182 18.4486C13.1014 18.6044 12.9722 18.6659 12.8672 18.6961L13.0744 19.4169L13.2815 20.1377C13.6172 20.0413 13.9056 19.8737 14.1939 19.6665C14.4745 19.4647 14.7953 19.1947 15.1815 18.8704L14.6993 18.296ZM11.8856 19.4169L11.6784 20.1377C12.2023 20.2883 12.7577 20.2883 13.2815 20.1377L13.0744 19.4169L12.8672 18.6961C12.6141 18.7688 12.3459 18.7688 12.0928 18.6961L11.8856 19.4169Z" fill="#555555"/>
</svg>
