<svg width="26" height="26" viewBox="0 0 26 26" fill="none" xmlns="http://www.w3.org/2000/svg">
<path d="M17.5499 5.11781C16.2114 4.34353 14.6574 3.90039 12.9999 3.90039C11.3424 3.90039 9.78839 4.34353 8.4499 5.11781C7.46774 5.68596 6.60161 6.4324 5.89579 7.31289C5.34724 7.99719 4.89551 8.76245 4.56138 9.58789C4.1348 10.6417 3.8999 11.7936 3.8999 13.0004C3.8999 14.2072 4.1348 15.3591 4.56138 16.4129M21.4384 9.58789C21.865 10.6417 22.0999 11.7936 22.0999 13.0004C22.0999 14.2072 21.865 15.3591 21.4384 16.4129C21.1043 17.2383 20.6526 18.0036 20.104 18.6879C19.3982 19.5684 18.5321 20.3148 17.5499 20.883C16.2114 21.6572 14.6574 22.1004 12.9999 22.1004C11.3424 22.1004 9.78839 21.6572 8.4499 20.883" stroke="#555555" stroke-width="1.5" stroke-linecap="round" stroke-linejoin="round"/>
<path d="M16.4115 10.7246L11.2928 15.2746L9.58655 13.5684" stroke="#555555" stroke-width="1.5" stroke-linecap="round" stroke-linejoin="round"/>
<path d="M17.5491 5.03672L16.4116 2.76172" stroke="#555555" stroke-width="1.5" stroke-linecap="round"/>
<path d="M9.58562 23.2379L8.44812 20.9629" stroke="#555555" stroke-width="1.5" stroke-linecap="round"/>
</svg>
