<svg width="26" height="26" viewBox="0 0 26 26" fill="none" xmlns="http://www.w3.org/2000/svg">
<path d="M13.963 12.0378H8.18523M10.1112 15.8896H8.18523M15.8889 8.18591H8.18523M19.7408 11.5563V7.99332C19.7408 6.37539 19.7408 5.56642 19.4259 4.94845C19.1489 4.40488 18.707 3.96293 18.1634 3.68596C17.5455 3.37109 16.7365 3.37109 15.1186 3.37109H8.9556C7.33767 3.37109 6.5287 3.37109 5.91073 3.68596C5.36716 3.96293 4.92521 4.40488 4.64824 4.94845C4.33337 5.56642 4.33337 6.37539 4.33337 7.99332V18.0081C4.33337 19.6261 4.33337 20.435 4.64824 21.053C4.92521 21.5966 5.36716 22.0385 5.91073 22.3155C6.5287 22.6304 7.33767 22.6304 8.9556 22.6304H11.5556M21.6667 22.6304L20.2223 21.1859M21.1852 18.7785C21.1852 20.6399 19.6763 22.1489 17.8149 22.1489C15.9535 22.1489 14.4445 20.6399 14.4445 18.7785C14.4445 16.9171 15.9535 15.4081 17.8149 15.4081C19.6763 15.4081 21.1852 16.9171 21.1852 18.7785Z" stroke="#555555" stroke-width="1.5" stroke-linecap="round" stroke-linejoin="round"/>
</svg>
