<svg width="24" height="24" viewBox="0 0 24 24" fill="none" xmlns="http://www.w3.org/2000/svg">
<path d="M7.3125 16.6875H5.5625C4.45793 16.6875 3.5625 15.7921 3.5625 14.6875V11.25C3.5625 9.59315 4.90565 8.25 6.5625 8.25H7.3125M7.3125 16.6875V13.875H16.6875V16.6875M7.3125 16.6875V17.5C7.3125 18.6046 8.20793 19.5 9.3125 19.5H14.6875C15.7921 19.5 16.6875 18.6046 16.6875 17.5V16.6875M16.6875 16.6875H18.4375C19.5421 16.6875 20.4375 15.7921 20.4375 14.6875V11.25C20.4375 9.59315 19.0944 8.25 17.4375 8.25H16.6875M7.3125 8.25V6.5C7.3125 5.39543 8.20793 4.5 9.3125 4.5H14.6875C15.7921 4.5 16.6875 5.39543 16.6875 6.5V8.25M7.3125 8.25H16.6875M14.8125 11.0625H16.6875" stroke="#555555" stroke-width="2" stroke-linecap="round" stroke-linejoin="round"/>
</svg>
